<?xml version="1.0" standalone="yes"?>
<svg xmlns="http://www.w3.org/2000/svg" width="1080" height="1080">
<path style="fill:#050505; stroke:none;" d="M375 421C369.62 420.585 368.335 417.351 364.711 413.861C355.674 405.157 351.753 391.501 344.86 381C341.442 375.791 337.405 368.296 330 369.387C324.245 370.235 320.224 375.858 316.754 380C309.654 388.473 302.389 401.145 292.985 407.107C287.955 410.296 281.961 409.345 277.04 413.39C271.527 417.923 267.595 425.052 263.783 431C257.811 440.319 251.831 449.622 245.95 459C237.866 471.889 230.319 485.207 222.053 497.961C211.558 514.154 199.853 529.586 189.576 546C183.295 556.03 176.522 566.094 168.714 575C164.414 579.904 158.03 584.25 157 591C154.877 591.307 154.314 591.382 153 593C162.603 591.267 170.379 582.776 178 577.156C191.553 567.163 201.111 552.727 210.72 539C222.637 521.977 234.575 504.962 246.576 488C251.493 481.05 256.741 474.194 261.291 467C264.391 462.098 266.208 457.052 272 455C273.685 464.538 267.346 473.091 262.6 481C254.996 493.673 246.712 505.831 238.341 518C234.286 523.895 228.355 530.252 226 537C229.972 536.025 235.507 535.049 238.985 532.929C243.565 530.139 247.003 525.04 250.41 521.001C254.862 515.725 259.812 510.551 265 506C264.659 512.646 261.157 518.291 261 525C263.656 523.108 264.109 520.828 265.63 517.996C268.799 512.095 271.449 506.098 274.231 500C283.94 478.717 290.731 454.692 303.548 435.001C305.557 431.913 307.946 429.176 311.015 427.108C316.063 423.706 323.896 421.126 330 422.537C340.374 424.935 351.416 439.675 352.684 450C353.385 455.701 351.04 462.123 348.251 467C336.726 487.148 322.375 509.318 305 524.826C296.915 532.043 287.193 537.312 278 542.939C265.366 550.672 252.17 557.642 239 564.409C233.09 567.445 225.161 571.296 223 578C230.805 577.141 238.399 571.986 246 569.721C261.536 565.09 276.123 560.236 290 551.575C324.786 529.865 350.738 493.069 370.719 458C381.911 438.357 391.186 417.759 402.139 398C406.055 390.935 409.26 380.552 418 378.184C420.535 377.498 423.403 377.956 426 378C425.831 386.121 422.634 392.744 419.309 400C411.934 416.095 401.538 429.585 391.438 444C383.537 455.276 375.832 468.698 372.04 482C370.919 485.932 370.946 490.026 370 494C372.919 494.283 374.689 493.875 375.971 490.89C380.648 480.003 384.661 470.829 391.71 461C401.692 447.08 414.122 434.988 423.958 421C434.031 406.673 439.856 390.154 446.203 374C448.906 367.119 453.189 360.041 455 353C464.27 356.709 462.941 368.893 465.966 377C468.747 384.452 477 389.885 484 393C481.794 397.247 474.115 399.537 474.427 404.829C474.758 410.458 482.043 410.132 486 409.961C498.422 409.422 510.662 410.292 523 408C519.251 402.835 513.475 401.39 509.21 396.895C504.88 392.332 503.571 385.723 498.815 381.529C494.378 377.617 487.4 376.543 484.573 370.957C480.65 363.207 483 350.491 483 342C485.48 344.737 488.483 346.955 490.539 350.054C495.029 356.821 497.876 364.892 504.174 370.319C510.217 375.528 518.425 378.413 525 383.036C534.47 389.695 542.472 398.181 552 404.795C561.932 411.69 573.196 416.403 583 423.428C591.522 429.535 599.94 436.248 607.957 443.004C611.351 445.864 614.079 450.617 619.004 450.678C622.975 450.727 626.143 447.838 629.17 445.656C634.568 441.764 640.205 438.266 646 435.004C652.426 431.387 659.532 429.219 666 425.688C674.008 421.315 681.055 415.352 689 410.876C693.519 408.33 698.667 406.938 702.91 403.895C709.299 399.313 712.47 391.638 719 387C717.887 392.989 718.526 401.599 714.911 406.725C712.629 409.961 708.199 410.742 705.104 412.966C701.589 415.491 699.934 419.636 696.699 422.442C693.276 425.411 689.241 425.833 687 430C694.271 430.579 701.754 431.431 709 432.286C711.736 432.608 715.972 433.923 718.392 431.973C722.509 428.655 715.126 424.893 716.921 421.376C718.618 418.047 723.974 416.963 726.351 413.895C730.826 408.12 729.97 399.655 737 396C740.293 411.417 745.379 429.032 752.782 443C758.332 453.474 766 462.876 772.189 473C775.084 477.735 778.117 482.713 779.895 488C781.315 492.221 780.785 495.676 785 498C784.996 467.013 755.253 445.619 755 415C764.118 415.612 766.864 422.425 769.989 430C776.019 444.613 781.022 459.69 787.781 474C800.385 500.684 815.874 527.599 840 545.522C848.267 551.663 857.63 554.837 867 558.815C871.45 560.704 875.421 563.426 880 565C876.933 558.428 870.835 555.205 865 551.333C856.5 545.69 848.048 539.849 840 533.576C822.652 520.053 809.275 499.605 801.468 479C795.299 462.721 816.83 443.555 830.895 457.133C836.939 462.968 838.767 472.301 841.333 480C846.453 495.36 850.722 511.061 857 526C858.622 521.834 856.379 517.341 856 513C863.419 522.118 869.124 532.816 881 536C874.539 522.34 865.485 509.932 859.424 496C856.852 490.088 853.593 484.555 855 478L857 478C863.117 491.457 871.296 504.144 878.576 517C885.391 529.035 891.666 541.477 899.333 553C906.177 563.285 915.1 575.332 927 580C923.609 572.717 917.382 566.881 913.204 560C904.024 544.879 895.804 528.635 887.549 513C880.444 499.542 874.056 485.619 867.247 472C863.701 464.909 860.474 456.343 855.211 450.329C852.143 446.823 847.586 446.382 844.093 443.57C838.041 438.697 833.894 430.284 829.424 424.001C826.981 420.566 824.736 416.288 819.985 416.167C814.581 416.03 811.165 421.17 808.236 425C801.919 433.258 797.974 445.011 787 448C786.688 441.986 783.772 437.364 781.309 432C777.853 424.475 774.672 416.568 769.471 410.015C762.109 400.736 752.392 393.607 745.13 384C739.42 376.447 733.409 363.175 723 361.623C714.374 360.336 705.018 369.968 699.039 375.001C689.909 382.686 683.959 393.318 675.91 402C666.787 411.841 655.435 419.124 644 426C639.004 429.004 634.026 432.044 629 434.998C626.966 436.194 624.524 438.028 622.015 437.477C618.809 436.774 616.311 433.035 613.911 431.015C607.893 425.948 601.294 421.355 595 416.627C579.02 404.622 561.553 392.989 548.174 378C538.347 366.991 531.49 353.235 523.333 341C515.796 329.693 505.805 318.888 495 310.529C490.541 307.079 484.863 303.437 479 304.532C467.257 306.727 460.258 316.579 452.845 325C442.385 336.882 431.701 348.596 419 358.127C413.985 361.89 408.454 365.408 404.184 370.039C396.451 378.429 391.024 389.273 385.2 399C381.075 405.888 375.429 412.753 375 421M648 551C651.613 554.303 652.752 558.177 653 563C660.405 557.79 656 539.89 656 532C645.04 532.738 648.555 542.936 648 551M232 717C237.211 717.594 243.347 713.547 248 711.36C261.488 705.018 274.711 696.594 287 688.191C317.202 667.538 344.715 643.515 369.83 616.961C386.419 599.422 400.669 579.743 417 562C417.289 576.016 419.501 589.991 420.011 604C420.184 608.759 422.102 614.365 420.397 619C418.536 624.057 412.865 628.806 409.13 632.576C402.363 639.407 395.955 646.554 388.961 653.17C364.902 675.926 341.041 698.275 316.335 720.289C309.421 726.45 302.216 732.531 295.015 738.399C290.278 742.258 284.979 745.552 282 751L280 750C274.87 756.375 267.255 763.241 260 767C264.772 767.696 269.318 763.158 272.996 760.485C283.588 752.788 293.683 744.481 304.004 736.424C329.065 716.861 354.656 697.543 378 675.91C389.233 665.5 399.944 654.486 411.011 643.907C415.122 639.977 418.37 635.33 423 632C423.061 639.365 424.408 646.663 424.91 654C425.661 664.954 425.566 676.113 427.213 687C428.422 694.997 430.947 702.846 432 711C421.982 711.818 411.71 715.299 402 717.846C386.602 721.883 371.207 725.913 356 730.659C348.296 733.063 335.066 733.228 331 741C333.667 742.003 336.175 742.621 339 743C339.353 757.594 354.453 759.354 362 769C352.492 772.04 343.241 775.21 334 779C342.193 780.967 351.897 776.341 360 775.17C372.415 773.375 384.852 771.359 397 768.115C410.157 764.602 423.452 759.824 437 758C437 762.322 438.492 768.095 437 772C438.726 777.515 438.996 783.252 439 789C441.475 785.733 441.005 782 441 778C440.991 770.633 440.06 763.342 440 756C456.76 753.741 473.618 747.249 490 743C490.575 762.338 493.474 781.667 495 801C497.189 795.783 496 788.619 496 783C496 768.979 495 755.033 495 741C511.645 738.507 528.375 732.32 544.714 728.146L622.83 708.17C628.491 706.731 634.357 706.316 640 704.701C644.483 703.417 648.501 700.941 653 699.69C679.622 692.286 706.258 685.559 733 678.579C739.575 676.863 746.559 676.149 753.015 674.352C756.459 673.393 759.533 671.443 763 670.49C774.231 667.403 785.917 665.515 797 662C797.622 666.361 796.955 670.62 797.242 675C797.549 679.71 799.011 683.572 797 688C798.925 692.535 801.597 704.561 799 709C800.389 713.006 800.153 716.806 800 721L802 721C802.616 706.657 803 692.405 803 678C803 673.326 801.456 665.168 804.603 661.303C808.244 656.834 821.492 655.13 827 655C825.315 665.587 828 677.253 828 688C831.383 679.957 828.596 671.275 829.184 663C829.38 660.244 829.522 655.798 831.603 653.738C835.435 649.943 845.835 649.652 851 648C850.35 646.7 850.853 647 849 647C850.832 647.031 850.559 646.921 852 648L859 647C857.752 646.315 857.451 646.251 856 646C858.635 643.487 859.596 641.621 860 638L851 638L853 637C848.863 636.64 843.363 640.027 839 641C840.45 639.392 841.051 638.936 843 638C838.911 636.284 834.237 636.991 830 638L829 605L830 571C817.963 571 807.703 569.158 800.603 558C797.88 553.722 799.467 548.117 795 545C795.062 550.382 792.982 555.664 792.289 561C791.398 567.86 792 575.091 792 582C792 586.143 793.317 593.127 790.397 596.502C785.144 602.571 772.261 605.272 765 608.269C760.223 610.241 750.088 615.233 745 614.188C741.391 613.446 737.915 609.693 735 607.576C728.922 603.163 722.824 599.177 716 595.981C696.284 586.745 672.558 583.864 651 586.174C632.981 588.104 613.778 595.981 599 606.175C594.091 609.561 589.533 613.405 585.004 617.278C582.518 619.403 580.366 622.025 576.83 621.261C568.872 619.541 561.167 615.423 554 611.755C523.562 596.177 501.044 569.484 479 544C471.001 553.018 452.455 548.99 442 545.961C437.055 544.527 431.656 543.292 430 538C427.589 537.963 424.493 537.207 422.279 538.418C418.277 540.607 419.042 547.138 415.852 550.424C402.972 563.693 391.95 578.652 379.497 592.325C369.646 603.141 360.151 614.297 349.715 624.576C341.122 633.038 331.703 640.71 323.208 649.208C317.095 655.325 311.778 662.016 305 667.566C282.235 686.204 257.811 702.864 232 717M479 548L478 549L479 548M481 548L482 550C480.737 549.029 480.608 549.306 481 548M472 552C469.445 559.576 462.806 565.6 458.158 572C449.17 584.376 440.954 600.269 429 610C428.712 596.063 426.886 581.919 425.91 568C425.468 561.69 423.222 555.188 425 549C432.55 551.065 440.02 555.406 448 555.722C455.804 556.032 464.248 552.999 472 552M478 551C477.979 558.723 475.921 566.301 476.019 574C476.364 601.374 480.041 628.703 481.91 656C482.853 669.762 481.791 684.523 485 698C469.725 703.609 452.756 705.821 437 710C437 688.199 433.43 666.679 431.91 645C431.443 638.334 429.004 629.544 430.357 623C431.191 618.971 435.028 616.009 437.561 613C442.454 607.187 446.815 600.94 451.551 595C459.219 585.382 465.87 574.831 471.691 564C473.971 559.756 475.343 555.001 478 551M483 552C496.495 580.869 520.704 604.273 549 618.521C557.061 622.58 565.153 626.903 574 629C566.777 640.564 558.35 649.909 553.425 663C551.726 667.516 550.337 672.25 549.463 677C549.038 679.308 549.275 682.346 547.397 684.066C543.575 687.564 534.865 687.617 530 688.435C517.333 690.565 504.892 695.734 492 696C492 661.303 486.752 626.672 485.549 592C485.248 583.347 484.757 574.602 483.715 566C483.171 561.519 481.327 556.286 483 552M801 561C804.95 572.467 813.67 575.993 825 576C824.489 577.952 824.267 578.457 823 580C826.905 585.575 824.619 595.47 824.155 602C823.272 614.427 825.027 626.672 826 639C818.211 639.001 810.739 640.84 803 641C802.162 630.381 801.001 619.665 801 609C801 605.321 799.95 599.547 802.028 596.302C803.341 594.252 805.987 593.525 808.001 592.382C812.735 589.696 817.125 586.414 822 584C814.769 584.167 807.253 590.931 800 593C800.505 583.361 797.252 569.932 801 561M605 586C604.084 579.889 601.222 575.075 597.792 570.019C596.488 568.097 594.89 564.966 592.059 566.176C588.343 567.764 588.643 572.035 590.229 574.995C593.119 580.389 599.479 583.881 605 586M713 586C720.247 585.031 723.428 580.229 726.353 574C727.171 572.26 729.014 569.569 727.839 567.604C723.86 560.946 717.802 572.135 716.978 575C715.851 578.916 714.86 582.341 713 586M831 578C834.289 590.022 843.337 597.941 854 603.819C873.735 614.698 897.943 614.985 920 615C915.927 612.216 909.841 612.352 905 611.59C893.256 609.742 881.428 608.767 870 605.226C861.563 602.612 852.609 597.679 846.015 591.819C840.909 587.283 836.89 581.557 831 578M739 615L739 617C727.712 621.46 715.832 623.574 704 625.804C682.307 629.892 661.079 632 639 632C623.338 632 604.557 631.263 590 625C597.402 615.322 609.207 609.068 620 603.895C633.987 597.191 648.687 594.81 664 593.957C667.753 593.748 671.221 592.173 675 592.272C697.683 592.864 720.921 601.306 739 615M794 642C771.031 647.25 747.233 648.453 724 652.324C690.623 657.885 657.311 663.418 624 669.424C606.933 672.502 590.002 675.999 573 679.4C565.786 680.843 557.291 684.575 550 683C556.709 670.247 563.253 656.57 571.874 645C574.588 641.358 577.89 635.067 582.171 633.132C585.644 631.561 591.466 634.338 595 635.115C604.504 637.206 614.131 638.394 623.83 639.117C640.661 640.37 658.204 641.482 675 638.85C688.43 636.746 701.527 631.794 715 629.704C721.121 628.754 727.411 626.611 733.286 624.717C739.22 622.803 742.858 620.095 749 623L748 625C752.955 628.097 755.785 633.715 758 639C758.748 631.721 751.805 624.777 748 619C759.229 616.028 769.291 610.414 780 605.94C782.763 604.786 788.412 601.145 791.397 603.121C794 604.845 792.932 610.37 793.079 613C793.622 622.706 794 632.259 794 642M921 615C922.248 615.685 922.549 615.749 924 616C922.752 615.315 922.452 615.251 921 615M779 618C774.103 614.654 768.771 616.316 764.005 619.208C762.239 620.28 759.286 621.75 758.921 624.052C757.89 630.558 768.744 626.219 770.714 624.532C773.487 622.158 775.823 619.85 779 618M844 636L844 638L847 638L847 636L844 636M759 639L759 642L761 641C760.455 639.365 760.635 639.545 759 639M834 639C833.944 643.093 834.839 646.126 836 650C833.623 650.572 831.442 650.891 829 651L830 640L834 639M822 642C822 643.797 821.986 643.522 821 645L819 645L818 642L822 642M807 643C805.376 645.044 804.357 645.896 802 647C802.968 644.036 803.934 643.497 807 643M543 650L543 648C537.168 645.49 531.321 644.497 525.004 644.219C523.075 644.134 519.665 643.746 519.137 646.317C518.422 649.798 522.075 652.386 525.015 652.852C530.785 653.765 537.424 651.347 543 650M854 644L854 646L852 646C852.545 644.365 852.365 644.545 854 644M863 644L864 645L863 644M794 647L794 649C792.365 648.455 792.545 648.635 792 647L794 647M846 647L845 648L846 647M849 647L848 648L849 647M781 648C779.878 652.153 778.832 655.652 779 660C774.757 657.074 771.246 654.133 770 649C773.735 648.969 777.305 648.467 781 648M811 648C813.323 649.477 815.487 650.894 818 652C815.006 654.392 811.721 655.222 808 656L811 648M758 652C756.115 657.629 755.955 662.119 756 668C752.124 664.458 748.887 659.906 747 655C750.636 653.094 753.898 652.188 758 652M788 655C790.115 656.573 791.469 657.352 794 658C791.258 660.246 788.507 660.711 785 661C785.655 658.463 786.276 656.953 788 655M736 656C734.252 660.806 734.782 665.089 734 670C729.464 666.795 726.241 663.095 724 658C727.957 656.66 731.824 656.086 736 656M765 659C768.026 660.905 770.441 662.463 774 663C770.249 665.263 765.313 666.269 761 667C762.032 664.123 763.263 661.517 765 659M712 661C711.146 666.524 710.333 674.515 707 679C703.021 673.49 696.854 669.077 694 663C700.116 662.87 705.839 661.017 712 661M743 664L745 668L749 667C748.178 670.838 742.579 671.143 739 672C740.15 669.205 741.314 666.506 743 664M683 665C679.912 671.608 678.953 678.176 677 685C671.608 680.668 666.163 675.193 663 669C669.279 667.091 676.418 665.14 683 665M720 667C721.956 669.744 724.373 672.053 726 675L714 678C715.578 674.17 717.232 670.075 720 667M649 672C647.309 677.87 645.08 682.917 644 689C639.471 686.437 635.312 681.016 634 676C639.027 674.656 643.795 672.519 649 672M690 672C693.803 675.262 698.796 677.313 702 681C695.959 682.25 690.173 684.496 684 685C685.514 680.526 686.86 675.559 690 672M658 676C661.255 680.621 665.1 684.176 670 687C664.341 691.458 652.159 693.414 645 694C649.185 687.988 653.453 683.009 656 676L658 676M620 679C617.857 684.562 615.729 689.959 616 696C610.674 693.319 603.701 687.332 601 682C607.18 681.202 613.873 678.09 620 679M627 684C630.519 686.464 633.42 690.375 638 690C639.297 692.035 640.333 693.695 641 696C634.191 696.594 627.84 699.441 621 700C622.164 694.849 624.187 688.476 627 684M589 685C586.986 691.042 584.312 696.726 583 703C576.96 701.06 570.624 694.102 567 689C574.159 687.148 581.624 685.583 589 685M595 689C601.136 693.975 606.777 697.777 614 701C610.993 703.089 607.503 703.441 604 704.428C598.033 706.11 592.211 708.458 586 709C592.228 703.158 591.965 696.236 595 689M555 692C551.255 699.883 548.69 707.254 548 716C541.253 712.704 534.204 703.733 531 697C538.046 693.969 547.342 692.334 555 692M581 711C570.85 712.367 561.053 716.044 551 718C554.828 711.097 558.138 704.379 561 697C565.285 698.66 567.983 701.685 571.714 704.22C575.257 706.627 578.77 707.071 581 711M522 699C518.808 706.588 513.794 715.266 509 722C503.046 717.577 497.706 711.419 494 705C502.738 702.224 512.829 699.4 522 699M526 705C531.403 711.398 536.805 714.942 544 719C541.043 721.327 537.618 721.586 534 722.475C527.396 724.097 520.743 726.092 514 727C518.746 721.505 523.797 714.644 523 707L526 705M486 707C487.619 715.346 487.459 723.7 489 732C485.168 729.798 482.87 726.238 479.831 723.089C475.887 719.003 470.569 715.694 469 710C474.807 709.75 480.334 708.169 486 707M451 715C447.611 722.904 442.498 729.734 440 738C438.329 734.027 435.834 721.389 439.603 718.14C442.303 715.812 447.616 715.656 451 715M494 718C496.353 720.532 498.515 722.874 500 726C503.565 725.839 505.346 726.81 507 730L494 732C494 727.585 492.729 722.133 494 718M435 740C429.478 735.533 424.174 728.811 422 722C424.427 721.318 428.062 719.675 430.566 720.694C432.657 721.544 432.83 724.081 433.101 726.005C433.762 730.691 433.892 735.388 435 740M458 721C459.583 727.942 461.625 734.298 464 741C456.876 743.278 449.412 745.997 442 747C443.726 742.514 446.875 739.121 449.276 735C452.064 730.215 454.015 724.931 458 721M468 722C472.896 727.636 481.368 729.498 485 736C479.22 736.779 473.88 738.875 468 739C468.19 733.73 466.126 726.8 468 722M801 722C800.014 723.479 800 723.203 800 725C801.082 723.616 801.191 723.662 801 722M412 724C409.965 732.876 407.13 740.932 406 750C398.777 746.608 390.02 737.897 386 731C394.247 727.452 403.35 726.238 412 724M513 727L512 728L513 727M377 733C375.188 738.689 371.389 743.486 369.076 749C367.011 753.921 366.431 759.182 364 764C357.432 758.171 349.038 749.783 345 742C355.637 740.436 366.917 736.703 377 733M419 733C421.386 736.651 424.204 740.013 426 744C429.6 744.637 431.32 746.784 433 750C424.48 750.743 416.302 754.097 408 756C409.069 751.877 411.688 748.813 413.506 745C415.442 740.94 416.017 736.414 419 733M386 744C389.227 746.254 392.035 748.569 394 752C398.186 751.541 400.786 753.509 403 757C397.612 759.319 391.742 760.812 386 762C386 756.512 384.429 749.107 386 744M378 751C380.717 754.69 382.302 758.463 383 763C377.126 764.878 371.102 767.099 365 768C368.856 762.36 373.19 755.828 378 751M332 780L333 781L332 780M440 790L439 794C440.146 792.359 440.393 791.924 440 790z"/>
</svg>
