<?xml version="1.0" standalone="yes"?>
<svg xmlns="http://www.w3.org/2000/svg" width="1080" height="1080">
<path style="fill:#ffffff; stroke:none;" d="M1.25977 1.25977C-5.6323 8.15186 0 45.0428 0 55L0 213L0 844L0 1019L0 1063C0 1066.79 -1.64801 1075.83 1.25977 1078.74C8.15183 1085.63 45.0428 1080 55 1080L213 1080L844 1080L1019 1080L1063 1080C1066.79 1080 1075.83 1081.65 1078.74 1078.74C1085.63 1071.85 1080 1034.96 1080 1025L1080 867L1080 236L1080 61L1080 17C1080 13.2124 1081.65 4.1676 1078.74 1.25977C1071.85 -5.63232 1034.96 0 1025 0L867 0L236 0L61 0L17 0C13.2125 0 4.16762 -1.64807 1.25977 1.25977z"/>
<path style="fill:#068b7e; stroke:none;" d="M653 382C659.37 375.846 662.864 342.487 656.053 335.849C644.711 324.795 644.478 355.355 645.381 359.601C647.023 367.324 652.928 373.667 653 382M304 345L300 343C304.688 363.795 266.934 394.36 254.179 409C208.623 461.288 160.637 508.537 108.225 553.397C94.9451 564.764 80.534 574.834 66.0002 584.6C61.8046 587.419 53.9978 594.5 49 594C40.1822 603.569 26.6464 607.813 16 615C23.7992 615.428 33.1231 609.221 40 605.928C61.1314 595.811 81.9956 583.239 101.136 569.779C177.6 516.008 236.87 449.884 297 379C297.01 399.565 299.712 420.18 301.14 440.68C301.643 447.913 304.668 459.236 301.802 466C290.795 491.985 255.198 515.919 235 535.078C195.852 572.212 156.612 609.038 115.425 643.882C96.3032 660.06 74.3153 674.84 57 693L58 694C107.029 655.754 158.457 620.484 205.68 579.739C240.471 549.72 271.155 515.787 305 485C306.629 512.208 306.508 543.523 312.479 570C313.918 576.379 321.713 597.668 316.951 602.965C311.869 608.619 292.444 609.755 285 611.615C256.807 618.662 228.801 626.501 201 634.963C190.274 638.227 170.903 638.309 166 650C182.695 653.281 184.451 672.621 200.941 680.882C203.151 681.99 213.31 687.382 211.512 690.714C206.279 700.416 178.138 701.253 169 709C206.622 710.086 249.512 693.451 286 685.092C292.32 683.644 320.134 672.275 324.762 676.977C333.34 685.69 329.737 721.051 331 733C339.357 716.082 325.378 691.403 332.824 675.265C337.288 665.591 378.62 659.687 389 657.304C392.6 656.478 402.695 651.667 405.733 654.965C415.021 665.052 406.885 694.865 413 708C410.096 708.639 412.792 740.637 415 746C421.35 724.539 415.247 697.991 415.008 676C414.948 670.558 412.163 654.926 415.862 650.92C420.661 645.723 433.47 645.169 440 643.154C462.863 636.098 486.809 631.147 509.997 625.122C595.309 602.957 680.271 581.427 765 558.108C789.777 551.288 814.26 545.455 839 538.427C845.005 536.721 861.739 529.701 867.447 532.558C871.435 534.554 869.758 550.602 870.363 555C873.669 579.036 871.446 603.938 875 628C883.156 606.993 879.117 579.102 879.003 557C878.967 550.097 876.101 535.135 880.814 529.548C887.329 521.827 904.812 521.8 914 519C912.77 536.151 916.636 553.685 916 571C924.628 556.014 912.339 533.994 919.822 519.46C924.473 510.427 962.053 507.734 972 504C967.567 503.349 963.333 505.16 959 506C962.637 502.734 963.998 499.737 965 495C949.257 492.448 934.988 491.17 919 494L919 404C926.179 413.739 929.2 423.207 939 431.519C974.027 461.229 1021.09 457.606 1064 462C1049.96 453.446 1028.97 453.851 1013 451.783C986.316 448.327 959.672 440.237 940 420.981C931.308 412.473 920.027 404.788 920 392C901.847 394.407 885.784 389.96 875.042 373.68C870.886 367.382 873.818 358.796 867 354C865.413 374.325 861.762 392.239 861.992 413C862.048 417.971 864.073 429.072 859.499 432.376C845.422 442.546 825.262 447.812 809 453.298C804.077 454.958 796.219 459.879 791 458.637C780.65 456.174 769.436 442.744 760 437.273C739.271 425.254 712.108 416.534 688.136 415.217C651.488 413.205 615.292 420.426 583 438.349C571.129 444.938 553.383 467.81 540.864 469.321C529.13 470.737 512.03 458.554 502 453.649C467.481 436.77 441.179 409.766 416.309 381C408.881 372.408 395.638 362.103 391 352C388.051 354.307 386.104 358.614 382.334 359.694C368.594 363.633 319.816 359.616 316 343C311.565 344.241 307.35 341.096 304 345z"/>
<path style="fill:#ffffff; stroke:none;" d="M393.333 359.667C393.278 359.722 393.222 360.778 393.667 360.333C393.722 360.278 393.778 359.222 393.333 359.667M315 452C333.527 436.976 346.801 411.389 360.374 392C366.947 382.609 376.028 374.38 381 364C369.168 367.199 351.067 372.806 339 369.98C333.592 368.713 313.997 359.066 309.822 361.493C305.165 364.2 309.706 379.627 310 384C311.515 406.54 314.91 429.451 315 452M389 360L390 361L389 360M388 363C379.84 387.638 364.106 412.066 347.68 432C339.409 442.037 320.772 458.636 317.52 471C314.974 480.68 319.16 495.018 319.864 505C322.07 536.266 330.544 570.789 327 602C350.527 598.972 376.212 591.592 399 585C393.217 565.021 395.305 540.777 394.063 520C391.711 480.645 388.071 441.374 386.078 402C385.439 389.384 390.605 375.165 388 363M394 364C407.894 434.862 404.312 510.189 411 582C429.49 578.699 447.447 573.182 466 570.157C473.703 568.902 488.011 568.693 494.178 563.518C498.716 559.711 498.84 541.206 501.077 535C508.6 514.125 521.687 499.417 533 481C493.181 471.14 451.55 442.126 425.517 410.999C413.496 396.627 406.913 377.284 394 364M874 379L875 426C881.014 424.388 914.245 411.038 910.049 402.743C908.539 399.757 894.631 399.777 891.001 398.088C882.165 393.978 879.655 386.106 874 379z"/>
<path style="fill:#068b7e; stroke:none;" d="M580 417C579.846 410.344 569.872 382.289 561.108 385.087C541.101 391.476 574.404 413.824 580 417M743 416C751.938 415.559 771.912 398.035 765.635 387.612C760.03 378.303 750.201 393.35 748.909 397.992C747.103 404.485 746.165 409.89 743 416z"/>
<path style="fill:#ffffff; stroke:none;" d="M909 409C900.969 418.821 884.689 421.645 877.684 430.719C867.765 443.567 878.448 483.418 879 499C885.665 497.508 907.666 498.944 911.722 494.028C915.472 489.48 910.372 477.377 910.328 472C910.153 451.045 911 430.014 911 409L909 409M557 475C613.518 488.613 671.144 487.002 728 475.898C744.575 472.661 769.241 471.745 783 461C724.883 412.828 607.15 411.886 557 475M815 504C813.303 501.697 811.228 499.531 813 497C807.977 490.589 799.21 468.86 789.785 469.04C779.276 469.241 767.494 477.48 757.003 479.606C718.868 487.333 682.943 496.352 644 498.861C620.18 500.396 594.494 494.963 571 491.669C564.193 490.714 553.951 484.986 547.323 486.319C531.581 489.484 516.097 529.419 508.252 542C506.41 544.954 497.854 557.947 499.7 561.267C501.798 565.04 523.211 558.514 527 557.621C555.073 551.009 584.071 547.81 612 540.919C669.047 526.844 732.595 516.403 791 511.118C808.086 509.571 824.973 505.38 842 504.007C846.948 503.608 860.238 503.533 863.74 499.781C866.351 496.982 864.885 488.612 864.922 485C865.071 470.517 865.031 453.125 862 439C845.462 445.224 827.724 451.792 812.562 460.805C809.335 462.723 798.999 462.733 798.5 467.365C797.568 475.997 813.588 492.939 815 504z"/>
<path style="fill:#068b7e; stroke:none;" d="M843 465C824.422 440.824 798.096 496.999 829.783 474.977C834.713 471.551 836.904 467.085 843 465M735 484L736 485L735 484M953 491C955.858 491.9 958.077 491.609 961 491C958.187 490.175 955.88 490.509 953 491z"/>
<path style="fill:#ffffff; stroke:none;" d="M933 498C938.851 497.69 943.718 496.572 949 494C943.541 492.989 936.541 493.351 933 498M919 514L928 512C922.541 495.529 919 496.183 919 514M901 500C902.437 502.475 903.525 503.563 906 505L908 499C905.612 499.639 903.472 499.945 901 500M878 508C880.291 506.544 882.065 504.917 884 503C879.983 502.291 878.552 504.199 878 508z"/>
<path style="fill:#068b7e; stroke:none;" d="M488 513C483.68 506.228 457.499 497.158 451.281 504.947C443.285 514.963 463.834 517.488 468.864 516.774C475.353 515.853 481.298 513.089 488 513M815 504L815 507C815.696 505.446 815.696 505.554 815 504z"/>
<path style="fill:#ffffff; stroke:none;" d="M954 504C951.394 505.537 948.778 506.802 946 508C949.6 508.55 952.146 507.135 955 505L954 504M942.333 507.667C942.278 507.722 942.222 508.778 942.667 508.333C942.722 508.278 942.778 507.222 942.333 507.667M862 508C862.902 509.923 863.076 509.999 865 511C864.518 508.636 864.364 508.482 862 508M828 512C831.158 517.835 836.188 522.782 842 526C840.745 519.508 843.483 514.887 846 509L828 512M889 509C890.13 513.938 888.246 516.675 886 521C891.5 520.248 896.57 519.548 901 516C896.67 514.141 893.149 511.169 889 509M807 537C807.603 529.61 808.124 523.225 810 516C792.059 513.996 795.716 529.652 807 537M775 542C775.311 534.538 774.959 528.425 777 521C758.028 522.843 759.223 532.714 775 542M852 529C856.254 528.278 860.327 527.309 864 525C857.257 522.895 853.842 520.27 852 529M820 526C819.206 530.463 816.595 533.828 815 538C821.668 536.394 828.144 534.649 835 534C830.629 531.265 824.846 527.682 820 526M714 533C720.005 540.727 727.811 549.388 735 556C737.56 546.724 739.909 537.405 742 528C732.878 529.616 723.207 532.637 714 533M787 534L783 545C787.746 544.043 792.132 542.344 797 542C794.508 538.527 790.414 536.572 787 534M668 541C672.232 550.162 680.665 557.217 687 565C692.591 558.868 693.911 543.227 697 535C687.249 536.468 677.599 538.756 668 541z"/>
<path style="fill:#068b7e; stroke:none;" d="M687.667 537.333C687.222 537.778 688.278 537.722 688.333 537.667C688.778 537.222 687.722 537.278 687.667 537.333z"/>
<path style="fill:#ffffff; stroke:none;" d="M752 539L744 555C755.731 551.276 766.545 549.889 752 539M707 545L699 565C707.553 564.533 718.315 561.769 726 558L707 545M637 571C641.074 564.088 643.676 553.773 646 546C621.993 546.982 625.906 555.946 637 571M765 548L766 549L765 548M657 552C653.856 562.517 648.109 570.704 640 578C647.487 579.495 672.766 573.603 678 568C668.979 564.896 665.315 555.488 657 552M574 561C578.259 568.022 589.505 578.572 597 582C596.236 572.373 598.509 564.609 603 556C593.12 556.203 583.759 559.904 574 561M613 563L604 588C614.614 586.968 624.488 582.599 635 581C630.29 574.267 619.656 568.017 613 563M524 571C525.894 574.511 541.571 592.718 545.431 590.679C550.367 588.072 553.713 570.318 556 565C545.357 566.034 534.435 568.649 524 571M563 570C563.762 579.873 562.367 594.186 553 600C562.707 601.952 584.051 594.258 593 590C582.999 583.107 572.886 577.292 563 570M494 612C493.597 598.431 500.043 587.562 504 575C496.995 576.377 475.491 577.544 471.063 583.121C467.043 588.182 489.556 609.302 494 612M499 615C514.072 611.423 529.301 607.879 544 603C540.594 599.588 518.788 583.496 515.371 584.72C509.859 586.694 502.07 609.302 499 615M435 621C442.482 609.795 446.972 597.175 456 587C450.522 585.838 415.048 591.08 415.297 597.355C415.608 605.196 429.742 615.828 435 621M459 593C457.196 604.891 454.192 625.067 440 628C449.229 630.638 479.723 622.16 488 617C475.89 610.578 468.05 603.376 459 593M405 636C403.102 623.468 402.182 610.673 401 598C396.29 598.721 379.747 600.258 377.544 604.897C375.377 609.459 400.54 632.887 405 636M331 647C336.073 634.297 339.953 622.005 349 611C324.774 608.291 327.996 630.029 331 647M412 615C412.643 621.987 413.589 628.98 413 636C419.754 635.308 426.34 633.309 433 632C426.078 625.86 418.768 621.565 412 615M304 621C308.185 631.133 316.09 638.891 322 648C327.677 630.975 320.007 618.247 304 621M357 620C350.36 633.646 341.016 645.672 334 659C345.076 656.331 355.744 651.908 367 650C364.682 641.21 362.158 627.308 357 620M372 621L373 622L372 621M373 623C373.17 627.787 372.462 641.523 375.402 645.093C378.969 649.424 396.979 642.392 400 639C389.939 636.303 382.013 627.767 373 623M250 634C255.577 644.008 269.195 657.236 279 663C282.146 650.186 285.315 637.737 289 625C275.846 627.45 262.973 630.737 250 634M189 652C195.598 662.983 207.547 675.376 217 684C223.481 668.221 229.807 653.542 237 638L189 652M298 638C294.935 650.52 288.412 659.646 283 671C295.152 671.475 309.32 665.253 321 662C315.002 653.916 305.74 644.407 298 638M249 654C249.888 663.387 250.565 671.563 250 681C254.4 680.047 273.226 677.552 274.094 672.406C274.691 668.865 252.189 655.639 249 654M236 664C233.06 674.382 224.866 680.782 220 690C225.387 688.29 241.493 686.415 243.961 680.904C245.524 677.416 242.164 672.905 243 669L236 664z"/>
</svg>
