<?xml version="1.0" standalone="yes"?>
<svg xmlns="http://www.w3.org/2000/svg" width="1080" height="1080">
<path style="fill:#028a7c; stroke:none;" d="M496 478L484 478C482.465 468.002 472.295 465.697 467.244 457.999C460.517 447.749 455.457 436.453 449.074 426C444.375 418.304 438.363 411.082 432.789 404C425.692 394.982 418.584 386.368 406 390.313C397.367 393.02 392.29 402.117 387.127 409C375.2 424.9 364.214 441.676 351.536 456.999C348.642 460.497 345.259 463.983 341 465.772C331.51 469.756 323.106 468.838 315.326 477.174C305.882 487.292 299.527 502.026 292.719 514C278.253 539.444 264.942 565.513 250.576 591C245.565 599.89 241.087 609.075 236.139 618C232.103 625.281 227.201 632.466 227 641L221 644C220.16 649.446 216.157 652.535 213.244 657C208.22 664.701 203.994 673.024 199.421 681C182.234 710.979 166.699 742.382 147.254 771C140.907 780.341 133.513 788.802 126.419 797.545C122.581 802.275 118.212 805.598 118 812L113 812L113 817C122.589 814.612 128.866 807.746 135.903 801.467C138.381 799.255 141.456 797.911 144.001 795.776C148.874 791.688 152.95 786.801 158 782.888C164.282 778.02 172.345 773.711 173 765L179 763L179 757C184.377 755.487 187.044 749.413 189.999 745C197.457 733.862 204.367 722.391 211.424 711C233.846 674.813 256.063 638.484 278 602C284.035 591.963 290.318 582.07 296.3 572C298.884 567.651 299.299 562.542 304 560L304 555C306.364 554.518 306.518 554.364 307 552L313 552C313.885 555.767 315.248 559.011 314.895 563C313.991 573.234 306.788 584.918 302.247 594C289.969 618.559 276.03 642.325 262.139 666C258.983 671.379 255.718 676.78 252.304 682C249.45 686.364 246.4 689.645 246 695L240 698L238 706C242.528 705.659 244.908 703.031 249 701.599C252.075 700.522 255.79 701 259 701C261.182 696.956 265.647 694.607 268.576 690.981C273.541 684.834 278.256 678.421 282.86 672C285.761 667.953 288.06 663.51 293 662C295.484 656.399 301.453 648.824 307 646C306.978 653.807 303.808 659.649 301.785 667C300.546 671.504 300.856 676.388 300 681C305.61 679.137 304.376 673.539 306.723 669C308.345 665.863 310.724 663.218 312.215 660C316.364 651.04 318.968 641.244 322.424 632C334.461 599.808 344.638 566.928 357.4 535C363.612 519.457 369.801 502.074 385 493.094C390.057 490.107 396.28 488.253 402 487.015C416.117 483.959 425.541 489.376 436 498.425C449.848 510.407 460.203 526.237 458.91 545C457.72 562.281 446.519 577.42 438.15 592C422.272 619.66 406.2 649.871 383.83 672.911C370.586 686.551 354.482 696.901 339 707.72C312.744 726.066 285.581 743.137 258.004 759.425C250.495 763.86 245.492 771.999 238 776L238 781C245.625 780.91 253.301 775.347 260 771.795C268.123 767.488 277.323 764.358 286 761.344C307.298 753.948 328.155 745.213 347 732.645C378.873 711.388 405.04 682.445 427.873 652C456.176 614.263 480.072 573.653 500.219 531C515.429 498.799 527.989 465.399 542.769 433C548.858 419.653 553.626 401.011 569 395.599C573.436 394.037 579.346 395 584 395C584 399.908 584.515 405.151 583.671 410C581.307 423.581 573.953 438.473 568.306 451C544.28 504.294 497.269 550.533 496 612C500.569 612.7 504.567 611.861 506.397 606.995C508.259 602.041 507.042 596.202 508.865 591C513.916 576.588 522.463 562.783 530.692 550C549.493 520.795 573.304 494.352 590.139 464C602.773 441.223 609.822 416.543 618 392C621.313 382.056 623.948 371.848 627.544 362C629.64 356.258 633.798 352.287 634 346C637.973 346.285 641.197 348.056 645 349C645.691 356.91 649.301 364.464 651.653 372C654.563 381.324 655.843 391.634 663.105 398.895C667.593 403.383 673.646 404.8 679 407.88C683.15 410.267 686.337 413.704 691 415C690.428 422.426 683.927 423.7 679.055 428.21C675.109 431.862 674.111 435.83 674 441C677.105 442.437 679.727 445.347 683 446.308C689.713 448.278 700.09 444.827 707 444.17C717.946 443.128 729.084 443.921 740 442.829C748.503 441.979 756.359 439.024 765 439C760.38 428.467 748.224 428.445 740.089 422.073C730.691 414.71 728.499 402.324 719.826 394.669C714.954 390.368 708.913 387.554 703 385C699.247 383.379 694.398 381.898 691.649 378.725C687.88 374.374 687.078 367.471 686.272 362C684.371 349.102 684.024 335.977 683 323C685.831 324.44 687.56 326.169 689 329L694 329C695.224 332.853 698.09 335.903 702 337C702.599 342.818 705.784 347.131 708.808 352C713.303 359.239 718.079 366.091 725 371.239C734.791 378.522 747.344 381.916 758 387.862C780.994 400.691 800.331 418.985 823 432.397C835.51 439.798 849.093 444.398 862 450.809C874.226 456.883 886.093 464.963 897 473.127C905.804 479.716 914.97 485.757 924 492.025C928.144 494.901 932.127 499.241 937 500.772C945.751 503.523 956.66 501.004 960 492C950.14 487.454 943.804 478.586 935.714 471.761C929.502 466.519 921.793 462.481 915 458.003C891.819 442.721 868.668 427.469 846 411.424C833.755 402.757 820.878 394.359 810 383.961C790.061 364.901 776.253 340.633 759.424 319C754.264 312.366 749.602 305.17 743.829 299.039C738.55 293.433 731.903 289.005 726 284.08C718.655 277.952 711.769 271.159 704 265.579C695.465 259.45 684.054 252.172 673 254.379C653.669 258.238 643.083 274.599 631.79 289C613.308 312.57 595.484 335.99 573 355.95C564.071 363.877 553.089 370.963 545.325 380.015C530.638 397.138 520.774 419.957 510.753 440C504.747 452.012 496.009 464.288 496 478z"/>
</svg>
